<?xml version="1.0" encoding="UTF-8" standalone="no"?>
<!DOCTYPE svg PUBLIC "-//W3C//DTD SVG 1.1//EN" "http://www.w3.org/Graphics/SVG/1.1/DTD/svg11.dtd">
<svg width="100%" height="100%" viewBox="0 0 184 180" version="1.1" xmlns="http://www.w3.org/2000/svg" xmlns:xlink="http://www.w3.org/1999/xlink" xml:space="preserve" xmlns:serif="http://www.serif.com/" style="fill-rule:evenodd;clip-rule:evenodd;stroke-linejoin:round;stroke-miterlimit:2;">
    <g transform="matrix(1,0,0,1,-502,-394)">
        <g id="Layer1">
        </g>
        <g id="Mountain">
        </g>
        <g id="Layer2">
            <g transform="matrix(1,0,0,1,189.994,41.3516)">
                <path d="M419,420L419,430.315L389.012,447.018L402.256,454.575L377,469L356,457L419,420Z" style="fill:url(#_Linear1);"/>
            </g>
            <g transform="matrix(-1,0,0,1,998.994,-4.64835)">
                <path d="M420,420L420,445L377,469L356,457L420,420Z" style="fill:url(#_Linear2);"/>
            </g>
            <g transform="matrix(1,0,0,1,189.994,41.3516)">
                <path d="M398,530L398,505L419,493L419,518L398,530Z" style="fill:url(#_Linear3);"/>
            </g>
            <g transform="matrix(1,0,0,1,189.994,41.3516)">
                <path d="M314,457L398,505L398,530L314,482L314,457Z" style="fill:url(#_Linear4);"/>
            </g>
            <g transform="matrix(-1,0,0,1,997.994,-4.64835)">
                <path d="M398,530L398,505L419,493L419,518L398,530Z" style="fill:url(#_Linear5);"/>
            </g>
            <g transform="matrix(-1,0,0,1,997.994,-4.64835)">
                <path d="M314,457L398,505L398,530L314,482L314,457Z" style="fill:url(#_Linear6);"/>
            </g>
        </g>
    </g>
    <defs>
        <linearGradient id="_Linear1" x1="0" y1="0" x2="1" y2="0" gradientUnits="userSpaceOnUse" gradientTransform="matrix(-9.89023,-18.2251,14.175,-7.6924,398.504,456.525)"><stop offset="0" style="stop-color:rgb(29,40,76);stop-opacity:1"/><stop offset="1" style="stop-color:rgb(104,191,226);stop-opacity:1"/></linearGradient>
        <linearGradient id="_Linear2" x1="0" y1="0" x2="1" y2="0" gradientUnits="userSpaceOnUse" gradientTransform="matrix(-8.67021,-22.3119,17.0825,-6.63813,398.216,460.126)"><stop offset="0" style="stop-color:rgb(116,96,155);stop-opacity:1"/><stop offset="1" style="stop-color:rgb(107,149,197);stop-opacity:1"/></linearGradient>
        <linearGradient id="_Linear3" x1="0" y1="0" x2="1" y2="0" gradientUnits="userSpaceOnUse" gradientTransform="matrix(7.7273,20.5968,-36.2896,13.6148,406.856,500.037)"><stop offset="0" style="stop-color:rgb(104,191,226);stop-opacity:1"/><stop offset="1" style="stop-color:rgb(29,40,76);stop-opacity:1"/></linearGradient>
        <linearGradient id="_Linear4" x1="0" y1="0" x2="1" y2="0" gradientUnits="userSpaceOnUse" gradientTransform="matrix(13.5299,-22.4523,19.5121,11.7581,372.887,520.933)"><stop offset="0" style="stop-color:rgb(116,96,155);stop-opacity:1"/><stop offset="1" style="stop-color:rgb(107,149,197);stop-opacity:1"/></linearGradient>
        <linearGradient id="_Linear5" x1="0" y1="0" x2="1" y2="0" gradientUnits="userSpaceOnUse" gradientTransform="matrix(-12.1375,-22.7901,40.1541,-21.3851,411.742,526.852)"><stop offset="0" style="stop-color:rgb(116,96,155);stop-opacity:1"/><stop offset="1" style="stop-color:rgb(107,149,197);stop-opacity:1"/></linearGradient>
        <linearGradient id="_Linear6" x1="0" y1="0" x2="1" y2="0" gradientUnits="userSpaceOnUse" gradientTransform="matrix(-9.18717,19.2891,-16.7632,-7.98408,362.13,484.808)"><stop offset="0" style="stop-color:rgb(104,191,226);stop-opacity:1"/><stop offset="1" style="stop-color:rgb(29,40,76);stop-opacity:1"/></linearGradient>
    </defs>
</svg>
